<svg id="Fondo" xmlns="http://www.w3.org/2000/svg" viewBox="0 0 224 143.83"><defs><style>.cls-1{fill:#ffa47c;}.cls-2{fill:#330e01;}.cls-3{fill:#994328;}.cls-4{fill:#303030;}.cls-5{fill:#aa502d;}.cls-6{fill:#191919;}.cls-7{fill:#e8a900;}.cls-8{fill:#d19c86;}.cls-9{fill:#607099;}.cls-10{fill:#dedede;}.cls-11{fill:#ffbd95;}.cls-12{fill:#383838;}.cls-13{fill:#4b5d87;}.cls-14{fill:#c2c2c2;}</style></defs><title>horse1</title><path class="cls-1" d="M140,21.46a34.78,34.78,0,0,1,3.32-1.75,67.76,67.76,0,0,1,7.3-2.46l-.73-9.75a12.06,12.06,0,0,1-8.8,3.79C139.74,14.31,138.7,18.23,140,21.46Z"/><path class="cls-2" d="M66.66,52.31s1-9.37-8.36-11.92c-9.16-2.48-22.65,9.85-40.12,7.23C11.66,46.65,5,34.44,5,34.44a15,15,0,0,0-.79,8.34,14.5,14.5,0,0,0,2.63,6c.15.49-2.94-.79-4.58-2.52a15.8,15.8,0,0,1-2-3.84s-1.87,7.07,5.16,12.92c.43.36-4.65,1.58-4.65,1.58a23.78,23.78,0,0,0,7.92,7.37,46.64,46.64,0,0,0,10.72,4.12l-8,3.83s8.37,1.09,10.88.92c1.75-.12,6.13-2,6.13-2L25,75.8s4.92,1.46,16.25-5.18S66.66,52.31,66.66,52.31Z"/><path class="cls-2" d="M171.18,29.07c.76.51.37,11.26-8.39,13.46s-18,.84-21.74,4.3S135.17,53.39,130.5,53a12.83,12.83,0,0,1-5.33-1.69s5.42.63,7-.5c2-1.39,3.27-3.8,5.27-6.71a9.79,9.79,0,0,1,3.28-2.4s-3.56-.61-5.79.57-4.64,2.05-6.32,1.77c-1.86-.32-3.49-2.85-3.49-2.85s2.58,1.35,4.3.33,5.24-4.21,9.23-4,1.85-2.93-1.66-3.38c-1.48-.19-3.93,2-3.93,2a4.79,4.79,0,0,1,5.59-3.7c12.94,1.83,14.47-2.07,14.47-2.07Z"/><path class="cls-2" d="M188.94,25.83c.63.66-2,11.08-11.05,11.37s-17.83-3-22.16-.4-7.15,5.16-11.62,3.78a12.81,12.81,0,0,1-4.85-2.78s5.16,1.77,7,1c2.24-.94,4-3,6.57-5.43a9.72,9.72,0,0,1,3.72-1.66s-3.35-1.35-5.78-.67-5,1-6.55.39c-1.75-.7-2.8-3.52-2.8-3.52s2.23,1.86,4.12,1.24,6-3,9.89-2,2.42-2.47-.92-3.65c-1.41-.5-4.27,1.15-4.27,1.15a4.81,4.81,0,0,1,6.26-2.44c12.25,4.53,14.57,1.05,14.57,1.05Z"/><path class="cls-2" d="M207.07,27c.46.78-4.55,10.31-13.4,8.49S177,28.43,172.21,30s-8.14,3.36-12.18,1A12.82,12.82,0,0,1,156,27.09s4.62,2.92,6.57,2.6c2.39-.39,4.6-2,7.66-3.76a9.8,9.8,0,0,1,4-.74s-2.95-2.1-5.47-2-5.07-.16-6.46-1.14S160.35,18,160.35,18s1.74,2.33,3.73,2.17,6.55-1.53,10.08.35,2.93-1.83,0-3.76c-1.26-.81-4.42.12-4.42.12a4.79,4.79,0,0,1,6.64-.91c10.86,7.26,10.34,5.08,13.93,4.41C201.87,18.18,207.07,27,207.07,27Z"/><path class="cls-3" d="M79,52.64c9.17-3.25,20.22,4.32,24.39,9.84s3.43,16.33,1.88,20.13C100.83,93.53,94.45,104,94.76,104.79c.53,1.42,18.36,22.93,19.34,25.83.42,1.26,1.72,4.72,1.94,5.36s-7.26,1.75-7.26,1.75-2.5-4.45-2.73-6.06c-1-7-21.31-20.66-22.38-22.32s1.53-10.43.3-13.54-14.15-10.57-17.5-16S61.33,58.91,79,52.64Z"/><path class="cls-4" d="M108,136.71s-.23,3.18.28,3.6,9.9,4.07,11.24,3.45-1.64-4.41-2-5.77a14.65,14.65,0,0,0-2-3.51Z"/><path class="cls-3" d="M160.14,56.82c3.3.4,7.87,2.14,11.46,10.11s-1.08,13-1.59,16.3,15.24,18.1,16.21,21.29.91,6.57-.37,8.07-4.27,3.28-6.11,7.75-3,7.13-4.61,7.5a26.88,26.88,0,0,0-5.85,2.59,20.77,20.77,0,0,0-2.28,1.94s-1.74-8.13-.77-7.74,2.32,1.32,2.88-.36,3.12-3.18,3.86-4.06,6.78-8,6.17-11.13S166.58,97.47,162,93.46s-12-7.86-13.6-11.81c-1.85-4.72-3.33-11.09-2-15.11S152.72,55.93,160.14,56.82Z"/><path class="cls-5" d="M54.94,56.79c2.48-7.07,11.42-13.87,26.28-12.5S99,48,120.71,48.4c12.1.22,17.09-3.51,24.36-8.18,8.08-5.18,22.43-11.31,31.84-13.83,8.9-2.38,20.56-3,26.14.72s-5.25,20.8-15,22.93c-4.84,1.06-17.42,12.08-17,14.06s3.68,7.8,1.28,14.08-18,19.79-36.14,19-38-12-45.39-12.9-26.44,4.19-32.37-1.92S52.27,64.37,54.94,56.79Z"/><path class="cls-6" d="M166.23,124.63s-2.83-1.75-3.7-1-3.36,8.57-3.14,9.83,2.7.12,4-.1a36.13,36.13,0,0,0,3.65-1Z"/><path class="cls-5" d="M190.57,26.27c-1.62,3.56-2,15.82.76,19.69s9.86,5.25,13.06,6.46,5.93,1.76,7.07,3.17,1.2,2.36,1.93,2.86,6.47.2,7.43-.44,1.35-2.69,2.12-3.61,1.41-2.92.86-3.74-1.89-3.68-3.58-4.72-6.72-6.77-8.46-8.77-4.5-8.46-8.29-10.26S192.65,21.71,190.57,26.27Z"/><path class="cls-3" d="M195.72,27.76c-1.18.59-3.06-2.2-2.84-4.23s1.46-5.64,2.78-6.62.83,1.52,1.67,2.93S199.66,25.8,195.72,27.76Z"/><path class="cls-6" d="M209.33,54.59c-4.33,0-14.43-.07-22.19-.71-18-1.48-19-10.89-19-11.29l1.17-.1c0,.09,1,8.83,18,10.23,10,.83,24.06.71,24.21.7v1.17Z"/><path class="cls-6" d="M212.16,49.84a7.75,7.75,0,0,1,1.91-4.32,7.21,7.21,0,0,1,3-2.44l1.79,1.77A7.65,7.65,0,0,0,216.14,47,11.85,11.85,0,0,0,214.5,51Z"/><path class="cls-6" d="M211.56,50.58c-.1-.14-15.1-12.46-15.1-12.46l-.9,1,15.05,12.19Z"/><path class="cls-6" d="M199.5,50.83A28.88,28.88,0,0,1,197,43a16.12,16.12,0,0,1,1.08-9.34c.93-2.54,4.42-7.21,4.42-7.21l-1.84-.73s-5.2,6.4-5.71,12.62a24.86,24.86,0,0,0,2.11,11.59Z"/><path class="cls-6" d="M195,38.35c-.24,0-2.84-2.36-4.49-5.5a17.61,17.61,0,0,1-1.84-7.73l1.18-.29a19.22,19.22,0,0,0,1.9,8,12.54,12.54,0,0,0,3.54,4.2Z"/><path class="cls-7" d="M212.73,54.8a2.64,2.64,0,0,1-2.19-1.17,2.55,2.55,0,0,1-.4-2A2.6,2.6,0,0,1,211.26,50a2.72,2.72,0,0,1,3.66.72,2.64,2.64,0,0,1-2.19,4.11Zm0-4.27a1.53,1.53,0,0,0-.91.28,1.58,1.58,0,0,0-.7,1,1.64,1.64,0,0,0,2.52,1.67,1.6,1.6,0,0,0,.69-1,1.64,1.64,0,0,0-1.6-1.95Z"/><path class="cls-5" d="M159.37,64.74c3.14,1.13,7.2,3.84,8.92,12.42s-2.51,13.63-5.2,15.53-7.61.25-8.3,1,8.22,15.6,8.45,18.92-.59,6.61-2.16,7.79-4.9,2.24-7.69,6.18-4.53,6.28-6.17,6.28a26.11,26.11,0,0,0-6.28,1.22,20.37,20.37,0,0,0-2.66,1.38s.13-8.31,1-7.72,2,1.81,2.89.29,3.75-2.4,4.67-3.09,8.41-6.31,8.5-9.47-9.65-14.12-13.21-19-5.28-7.13-3-10.7,2.51-10.93,4.73-14.54S152.34,62.22,159.37,64.74Z"/><path class="cls-4" d="M139.26,127.72s-2.37-2.33-3.39-1.77-5.18,7.59-5.25,8.87,2.6.73,3.88.79a35.08,35.08,0,0,0,3.78-.17Z"/><path class="cls-5" d="M76.48,52.07c10.1.36,17.89,11.89,19.81,18.82S93.38,88,90.43,91.05c-8.49,8.85-18,15.43-18.06,16.35,0,1.57,18.2,9.39,19.1,10.43s3.17,10.5,3.13,11.21-7.43-3.21-7.43-3.21a4.13,4.13,0,0,0-1.48-3c-1.41-.93-26-12.18-26.37-14.19S67,100.29,67,96.81,55.14,80.05,54,73.49,57,51.37,76.48,52.07Z"/><path class="cls-4" d="M87.17,125.83s-2.31,2.38-2.17,3,4.43,8.16,5.9,8.56,2.37-2.91,3-4.25A15.51,15.51,0,0,0,94.6,129Z"/><path class="cls-8" d="M99.62,70.52c2.44,1.62,8.39,3.44,20.89,4.16,4.39.25,14.08.91,24.19-1.15,4.85-1-3.18-31.07-3.84-31s-4.69,4.24-17.28,5c-16.4,1-25.68-.9-25.68-.9S97.18,68.91,99.62,70.52Z"/><path d="M127.13,47.15a136,136,0,0,1,3.7,23.75A153.66,153.66,0,0,1,130.12,97l7.63.8a151.86,151.86,0,0,0,.13-28.2,138,138,0,0,0-4.06-23.38Z"/><path class="cls-9" d="M140.4,9.16c-1.82-.69-10,.48-6.61.07.16,0-5.11.63-6.13.69S116,10.27,110.26,15c-1,.77-3.41,1.66-2.82,3.66,2.32,4.89,7,8.49,12.06,10.8,1.65,1.11,3.16-.89,4.86-1.22,3.47-.7,9.48.09,13.86-.52s7.22-3.35,8-6.37S145.56,11.1,140.4,9.16Z"/><path class="cls-10" d="M107.44,18.63c-4.08,3.72-7.4,7.05-5.67,12.3,1.42,4.33,10.62,4,14,2.42,1.74-.81,2.71-2.43,3.69-3.92C114.4,27.12,109.76,23.52,107.44,18.63Z"/><path class="cls-9" d="M138.21,14.49c2.62-1.11,5.07,1.43,7.06,5.11s6.9,12.43,7.26,14.73S150.68,39.9,148,38,138.38,27.7,136.79,24.6,132.5,16.91,138.21,14.49Z"/><path class="cls-10" d="M173.17,49.81h0a.64.64,0,0,0-.13-.89l-2.19-1.63a.64.64,0,0,0-.9.13h0a.64.64,0,0,0,.13.89l2.19,1.64A.65.65,0,0,0,173.17,49.81Z"/><path class="cls-10" d="M174,48.91h0a.64.64,0,0,0-.13-.89l-2.19-1.64a.63.63,0,0,0-.89.14h0a.64.64,0,0,0,.14.89l2.19,1.64A.63.63,0,0,0,174,48.91Z"/><path class="cls-10" d="M174.7,48h0a.66.66,0,0,0-.14-.9l-2.19-1.63a.64.64,0,0,0-.89.13h0a.66.66,0,0,0,.14.9l2.19,1.63A.64.64,0,0,0,174.7,48Z"/><path class="cls-10" d="M175.33,47.05h0a.65.65,0,0,0-.13-.9L173,44.52a.64.64,0,0,0-.89.13h0a.64.64,0,0,0,.13.89l2.19,1.63A.65.65,0,0,0,175.33,47.05Z"/><path class="cls-10" d="M167.28,41.76a49.72,49.72,0,0,1,5,1.63,27,27,0,0,1,3.1,3s-1.53.3-1.91,1-1.2,2.57-1.2,2.57a19.69,19.69,0,0,1-3.85-2c-1.06-.9-2.88-2.19-2.88-2.19Z"/><path class="cls-11" d="M156.63,4.79c-1.52-2-6.62-4.49-9.87-1.42a7.73,7.73,0,0,0-1.69,9.16,9,9,0,0,0,3.69,4.34c.4.27,4.22,1.66,5.06,1.53.57-.09,1.69-3.95,1.84-3.9a.74.74,0,0,0,.72-.43c.11-.46.11-3.37.28-3.65S158.38,7.07,156.63,4.79Z"/><path d="M157.41,6.73s-2.7-2.23-7,.52c-.94.59,0,4-.22,4.22S147.57,8.66,147.62,9c.44,3.81-1.1,5.59-1.43,5.56-1-.11-3.19-5.76-.93-9.62A7,7,0,0,1,153,1.9C154.05,2.31,157.21,3.12,157.41,6.73Z"/><path class="cls-11" d="M149.23,10.15c.15,1.21,0,2.79-.62,2.87s-1.3-.85-1.45-2.06.26-2.26.92-2.33S149.09,8.94,149.23,10.15Z"/><path class="cls-12" d="M145.85,10c.14,0,.56,2.88,1.39,4.34A8.77,8.77,0,0,0,151.67,18a4.27,4.27,0,0,0,.93.18,8.19,8.19,0,0,0-.74-.65,9.43,9.43,0,0,1-3.51-3c0-.19,1.29-2.17,2-3.77a17.52,17.52,0,0,0,.61-2.21h-.84a7.57,7.57,0,0,1-.37,1.69,14.41,14.41,0,0,1-2,3.35s-.41-.89-.7-1.74a12.38,12.38,0,0,1-.46-2.45Z"/><path d="M130.42,70.6a7.41,7.41,0,0,1-.28,3.05,20.33,20.33,0,0,0-1.14,4.8c0,1,1.66,2.29,1.66,2.29l3,.05s-.76-5-1.11-6.56a6.43,6.43,0,0,1,.41-3.34Z"/><path class="cls-6" d="M126.29,49.57a56.29,56.29,0,0,0-1.86,9.7c-.47,5.07-.06,7.88,1.37,8.28s3.72.58,4.49,1.81,1.52,2.69,2.56,2.65,1.39-8.62,1.32-14.24-1.28-7.46-1.28-7.46Z"/><path class="cls-4" d="M127.45,38.78c.86-.55,3.39-.3,3.86.31.78,1,1.13,5.14.89,5.95s-.08,4.2-2.65,4.5-3-1.82-3.11-3.25S125.72,39.88,127.45,38.78Z"/><path class="cls-6" d="M132.22,43s.21,5.43-2.8,5.52c-2.16.07-2.45-2-3.07-1.94s-2,.75-2.69.56-3.08-1.39-4-1.18-8.83,2.06-8.61,3.36,5.14,7,10.56,6.53,6.76-3.91,7.93-4,4.47,2.21,5.71,0C135.81,50.93,136.73,43.08,132.22,43Z"/><path class="cls-4" d="M126.38,40.92s-8.23,5-12.25,4.46c-7.55-1.05-8.68-3.48-10.83-2-1.06.72.83,5.5,4.72,6s20.81-.87,20.81-.87-1.75-.77-2.18-3.59A20.59,20.59,0,0,1,126.38,40.92Z"/><path class="cls-13" d="M159.8,8.16c.11-.5-1.45-1.08-1.44-1.49,0-1.9-.71-5.62-5.73-6.51-7.06-1.26-10.73,5.3-9.31,9.48a10.93,10.93,0,0,0,.92,2.06c.36.36.94-.86,3-1.61A16,16,0,0,1,152,9C155.06,8.92,159.68,8.77,159.8,8.16Z"/><path class="cls-10" d="M102.85,26.43c1.22-2,4.36-2.39,7-2s9.14,5,12,7.34S132.47,42,132.73,44.52s-1.88,5.8-6.06,3.84a148.05,148.05,0,0,1-17.24-9.81C105.67,35.81,99.18,32.57,102.85,26.43Z"/><path class="cls-10" d="M130.93,43.41c-2.51-.58-9,4.61-10.32,11.61s-.52,14.59-.77,15.79-1.62,3.75-.68,4.61,6.14-.26,6.14-1.28-.43-.69-.08-3.16,3.92-14.51,4.86-17.24S135,44.35,130.93,43.41Z"/><path class="cls-14" d="M121.34,74.83c-.93-.85.43-3.41.69-4.61s-.52-8.79.77-15.79a16.53,16.53,0,0,1,3.86-7.74,144.26,144.26,0,0,1-15-8.73c-2.56-1.86-6.38-4-7.4-7.06a3.87,3.87,0,0,1-.25-.55c-1.49-4.53.77-7.63,4-10.77-.18-.32-.4-.61-.55-.95-4.08,3.72-7.4,7.05-5.67,12.3a2.77,2.77,0,0,0,.26.55c1,3.1,4.84,5.2,7.4,7.07a143.05,143.05,0,0,0,15,8.72A16.52,16.52,0,0,0,120.61,55c-1.28,7-.52,14.59-.77,15.79s-1.62,3.75-.68,4.61c.66.6,3.47.21,5-.43C123,75.19,121.75,75.2,121.34,74.83Z"/><path d="M121.63,50.84a29.16,29.16,0,0,0-2.16,7.88c-.37,3.89.37,10.8,0,11.57a21.27,21.27,0,0,0-1.3,5,16.57,16.57,0,0,0,.88,2.53c0,.29.11,1.46.11,1.46l5,.59.44-1.07A28.48,28.48,0,0,0,132.13,80c3.12-.1,5.45-.49,5.74-1.07s-.09-1.65-2.72-2-7.71-3.58-8.92-4.46,3.67-17.81,3.67-17.81-.38-3.35-2.34-4.28C125.29,49.38,121.63,50.84,121.63,50.84Z"/><path class="cls-4" d="M130.61,71.45l3.21.36a.68.68,0,0,0,.72-.65h0a.71.71,0,0,0-.59-.8L130.74,70a.68.68,0,0,0-.72.65h0A.72.72,0,0,0,130.61,71.45Z"/><path class="cls-4" d="M134,71l-2.77-.08a23.43,23.43,0,0,0,.07,2.7c.12.83.41,4.56.06,5.7s-.43,1.44-.43,1.44l3.44,0a11.3,11.3,0,0,0,.29-3c-.11-1.5-.85-3.58-.86-4.51A14.85,14.85,0,0,1,134,71Z"/><path class="cls-10" d="M142.21,20.4c.78,1.42.54,3-.52,3.62s-2.56-.08-3.34-1.5-.54-3,.53-3.61S141.44,19,142.21,20.4Z"/><path class="cls-14" d="M127.42,37.13h0a61,61,0,0,0-5.53-5.33c-.71-.56-1.62-1.25-2.64-2l.25-.38A31.11,31.11,0,0,1,116,27.57l-.53-.34a25.64,25.64,0,0,1-3.65-2.87c-.43.65-.5,1.51.55,2.53,2.48,2.42,15.49,10.75,15.58,10.81Z"/><path class="cls-9" d="M167.91,41.94A53.48,53.48,0,0,0,160,36.19c-4.27-2.46-9.17-3.8-11.2-2.52s-1.92,3.79.47,5.53S165.1,46,165.54,46.08,167.91,41.94,167.91,41.94Z"/></svg>