<?xml version="1.0" encoding="utf-8"?>
<!-- Generator: Adobe Illustrator 24.0.2, SVG Export Plug-In . SVG Version: 6.00 Build 0)  -->
<svg version="1.1" xmlns="http://www.w3.org/2000/svg" xmlns:xlink="http://www.w3.org/1999/xlink" x="0px" y="0px"
	 viewBox="0 0 224 143.8" style="enable-background:new 0 0 224 143.8;" xml:space="preserve">
<style type="text/css">
	.st0{fill:url(#SVGID_1_);}
	.st1{fill:url(#SVGID_2_);}
	.st2{clip-path:url(#SVGID_4_);fill:url(#SVGID_5_);}
	.st3{clip-path:url(#SVGID_4_);fill:url(#SVGID_6_);}
	.st4{clip-path:url(#SVGID_4_);fill:url(#SVGID_7_);}
	.st5{clip-path:url(#SVGID_4_);fill:url(#SVGID_8_);}
	.st6{clip-path:url(#SVGID_4_);fill:url(#SVGID_9_);}
	.st7{clip-path:url(#SVGID_4_);fill:url(#SVGID_10_);}
	.st8{clip-path:url(#SVGID_4_);fill:url(#SVGID_11_);}
	.st9{clip-path:url(#SVGID_4_);fill:url(#SVGID_12_);}
	.st10{clip-path:url(#SVGID_4_);fill:url(#SVGID_13_);}
	.st11{clip-path:url(#SVGID_4_);fill:url(#SVGID_14_);}
	.st12{clip-path:url(#SVGID_4_);fill:url(#SVGID_15_);}
	.st13{clip-path:url(#SVGID_4_);fill:url(#SVGID_16_);}
	.st14{clip-path:url(#SVGID_4_);fill:url(#SVGID_17_);}
	.st15{clip-path:url(#SVGID_4_);fill:url(#SVGID_18_);}
	.st16{clip-path:url(#SVGID_4_);fill:url(#SVGID_19_);}
	.st17{clip-path:url(#SVGID_4_);fill:url(#SVGID_20_);}
	.st18{clip-path:url(#SVGID_4_);fill:url(#SVGID_21_);}
	.st19{clip-path:url(#SVGID_4_);fill:url(#SVGID_22_);}
	.st20{clip-path:url(#SVGID_4_);fill:url(#SVGID_23_);}
	.st21{clip-path:url(#SVGID_4_);fill:url(#SVGID_24_);}
	.st22{clip-path:url(#SVGID_4_);fill:url(#SVGID_25_);}
	.st23{clip-path:url(#SVGID_4_);fill:url(#SVGID_26_);}
	.st24{clip-path:url(#SVGID_4_);fill:url(#SVGID_27_);}
	.st25{clip-path:url(#SVGID_4_);fill:url(#SVGID_28_);}
	.st26{clip-path:url(#SVGID_4_);fill:url(#SVGID_29_);}
	.st27{clip-path:url(#SVGID_4_);fill:url(#SVGID_30_);}
	.st28{clip-path:url(#SVGID_4_);fill:url(#SVGID_31_);}
	.st29{clip-path:url(#SVGID_4_);fill:url(#SVGID_32_);}
	.st30{clip-path:url(#SVGID_4_);fill:url(#SVGID_33_);}
	.st31{clip-path:url(#SVGID_4_);fill:url(#SVGID_34_);}
	.st32{clip-path:url(#SVGID_4_);fill:url(#SVGID_35_);}
	.st33{clip-path:url(#SVGID_4_);fill:url(#SVGID_36_);}
	.st34{clip-path:url(#SVGID_4_);fill:url(#SVGID_37_);}
	.st35{clip-path:url(#SVGID_4_);fill:url(#SVGID_38_);}
	.st36{clip-path:url(#SVGID_4_);fill:url(#SVGID_39_);}
	.st37{clip-path:url(#SVGID_4_);fill:url(#SVGID_40_);}
	.st38{clip-path:url(#SVGID_4_);fill:url(#SVGID_41_);}
	.st39{clip-path:url(#SVGID_4_);fill:url(#SVGID_42_);}
	.st40{clip-path:url(#SVGID_4_);fill:url(#SVGID_43_);}
	.st41{clip-path:url(#SVGID_4_);fill:url(#SVGID_44_);}
	.st42{clip-path:url(#SVGID_4_);fill:url(#SVGID_45_);}
	.st43{clip-path:url(#SVGID_4_);fill:url(#SVGID_46_);}
	.st44{clip-path:url(#SVGID_4_);fill:url(#SVGID_47_);}
	.st45{clip-path:url(#SVGID_4_);fill:url(#SVGID_48_);}
	.st46{clip-path:url(#SVGID_4_);fill:url(#SVGID_49_);}
	.st47{clip-path:url(#SVGID_4_);fill:url(#SVGID_50_);}
	.st48{clip-path:url(#SVGID_4_);fill:url(#SVGID_51_);}
	.st49{clip-path:url(#SVGID_4_);fill:url(#SVGID_52_);}
	.st50{clip-path:url(#SVGID_4_);fill:url(#SVGID_53_);}
	.st51{clip-path:url(#SVGID_4_);fill:url(#SVGID_54_);}
	.st52{clip-path:url(#SVGID_4_);fill:url(#SVGID_55_);}
	.st53{clip-path:url(#SVGID_4_);fill:url(#SVGID_56_);}
	.st54{clip-path:url(#SVGID_4_);fill:url(#SVGID_57_);}
	.st55{clip-path:url(#SVGID_4_);fill:url(#SVGID_58_);}
	.st56{clip-path:url(#SVGID_4_);fill:url(#SVGID_59_);}
	.st57{clip-path:url(#SVGID_4_);fill:url(#SVGID_60_);}
	.st58{clip-path:url(#SVGID_4_);fill:url(#SVGID_61_);}
	.st59{clip-path:url(#SVGID_4_);fill:url(#SVGID_62_);}
	.st60{clip-path:url(#SVGID_4_);fill:url(#SVGID_63_);}
	.st61{clip-path:url(#SVGID_4_);fill:url(#SVGID_64_);}
	.st62{clip-path:url(#SVGID_4_);fill:url(#SVGID_65_);}
	.st63{clip-path:url(#SVGID_4_);fill:url(#SVGID_66_);}
	.st64{clip-path:url(#SVGID_4_);fill:url(#SVGID_67_);}
	.st65{clip-path:url(#SVGID_4_);fill:url(#SVGID_68_);}
	.st66{clip-path:url(#SVGID_4_);fill:url(#SVGID_69_);}
	.st67{clip-path:url(#SVGID_4_);fill:url(#SVGID_70_);}
	.st68{clip-path:url(#SVGID_4_);fill:url(#SVGID_71_);}
	.st69{clip-path:url(#SVGID_4_);fill:url(#SVGID_72_);}
	.st70{clip-path:url(#SVGID_4_);fill:url(#SVGID_73_);}
	.st71{clip-path:url(#SVGID_4_);fill:url(#SVGID_74_);}
	.st72{clip-path:url(#SVGID_4_);fill:url(#SVGID_75_);}
	.st73{clip-path:url(#SVGID_4_);fill:url(#SVGID_76_);}
	.st74{clip-path:url(#SVGID_4_);fill:url(#SVGID_77_);}
	.st75{clip-path:url(#SVGID_4_);fill:url(#SVGID_78_);}
	.st76{clip-path:url(#SVGID_4_);fill:url(#SVGID_79_);}
	.st77{clip-path:url(#SVGID_4_);fill:url(#SVGID_80_);}
	.st78{clip-path:url(#SVGID_4_);fill:url(#SVGID_81_);}
	.st79{clip-path:url(#SVGID_4_);fill:url(#SVGID_82_);}
	.st80{clip-path:url(#SVGID_4_);fill:url(#SVGID_83_);}
	.st81{clip-path:url(#SVGID_4_);fill:url(#SVGID_84_);}
	.st82{clip-path:url(#SVGID_4_);fill:url(#SVGID_85_);}
	.st83{clip-path:url(#SVGID_4_);fill:url(#SVGID_86_);}
	.st84{clip-path:url(#SVGID_4_);fill:url(#SVGID_87_);}
	.st85{clip-path:url(#SVGID_4_);fill:url(#SVGID_88_);}
	.st86{clip-path:url(#SVGID_4_);fill:url(#SVGID_89_);}
	.st87{clip-path:url(#SVGID_4_);fill:url(#SVGID_90_);}
	.st88{clip-path:url(#SVGID_4_);fill:url(#SVGID_91_);}
	.st89{clip-path:url(#SVGID_4_);fill:url(#SVGID_92_);}
	.st90{clip-path:url(#SVGID_4_);fill:url(#SVGID_93_);}
	.st91{clip-path:url(#SVGID_4_);fill:url(#SVGID_94_);}
	.st92{clip-path:url(#SVGID_4_);fill:url(#SVGID_95_);}
	.st93{clip-path:url(#SVGID_4_);fill:url(#SVGID_96_);}
	.st94{clip-path:url(#SVGID_4_);fill:url(#SVGID_97_);}
	.st95{clip-path:url(#SVGID_4_);fill:url(#SVGID_98_);}
	.st96{clip-path:url(#SVGID_4_);fill:url(#SVGID_99_);}
	.st97{clip-path:url(#SVGID_4_);fill:url(#SVGID_100_);}
	.st98{clip-path:url(#SVGID_4_);fill:url(#SVGID_101_);}
	.st99{clip-path:url(#SVGID_4_);fill:url(#SVGID_102_);}
	.st100{clip-path:url(#SVGID_4_);fill:url(#SVGID_103_);}
	.st101{clip-path:url(#SVGID_4_);fill:url(#SVGID_104_);}
	.st102{clip-path:url(#SVGID_4_);fill:url(#SVGID_105_);}
	.st103{clip-path:url(#SVGID_4_);fill:url(#SVGID_106_);}
	.st104{clip-path:url(#SVGID_4_);fill:url(#SVGID_107_);}
	.st105{clip-path:url(#SVGID_4_);fill:url(#SVGID_108_);}
	.st106{clip-path:url(#SVGID_4_);fill:url(#SVGID_109_);}
	.st107{clip-path:url(#SVGID_4_);fill:url(#SVGID_110_);}
	.st108{clip-path:url(#SVGID_4_);fill:url(#SVGID_111_);}
	.st109{clip-path:url(#SVGID_4_);fill:url(#SVGID_112_);}
	.st110{clip-path:url(#SVGID_4_);fill:url(#SVGID_113_);}
	.st111{clip-path:url(#SVGID_4_);fill:url(#SVGID_114_);}
	.st112{clip-path:url(#SVGID_4_);fill:url(#SVGID_115_);}
	.st113{clip-path:url(#SVGID_4_);fill:url(#SVGID_116_);}
	.st114{clip-path:url(#SVGID_4_);fill:url(#SVGID_117_);}
	.st115{clip-path:url(#SVGID_4_);fill:url(#SVGID_118_);}
	.st116{clip-path:url(#SVGID_4_);fill:url(#SVGID_119_);}
	.st117{clip-path:url(#SVGID_4_);fill:url(#SVGID_120_);}
	.st118{clip-path:url(#SVGID_4_);fill:url(#SVGID_121_);}
	.st119{clip-path:url(#SVGID_4_);fill:url(#SVGID_122_);}
	.st120{clip-path:url(#SVGID_4_);fill:url(#SVGID_123_);}
	.st121{clip-path:url(#SVGID_4_);fill:url(#SVGID_124_);}
	.st122{clip-path:url(#SVGID_4_);fill:url(#SVGID_125_);}
	.st123{clip-path:url(#SVGID_4_);fill:url(#SVGID_126_);}
	.st124{clip-path:url(#SVGID_4_);fill:url(#SVGID_127_);}
	.st125{clip-path:url(#SVGID_4_);fill:url(#SVGID_128_);}
	.st126{clip-path:url(#SVGID_4_);fill:url(#SVGID_129_);}
	.st127{clip-path:url(#SVGID_4_);fill:url(#SVGID_130_);}
	.st128{clip-path:url(#SVGID_4_);fill:url(#SVGID_131_);}
	.st129{clip-path:url(#SVGID_4_);fill:url(#SVGID_132_);}
	.st130{clip-path:url(#SVGID_4_);fill:url(#SVGID_133_);}
	.st131{clip-path:url(#SVGID_4_);fill:url(#SVGID_134_);}
	.st132{clip-path:url(#SVGID_4_);fill:url(#SVGID_135_);}
	.st133{clip-path:url(#SVGID_4_);fill:url(#SVGID_136_);}
	.st134{clip-path:url(#SVGID_4_);fill:url(#SVGID_137_);}
	.st135{clip-path:url(#SVGID_4_);fill:url(#SVGID_138_);}
	.st136{clip-path:url(#SVGID_4_);fill:url(#SVGID_139_);}
	.st137{clip-path:url(#SVGID_4_);fill:url(#SVGID_140_);}
	.st138{clip-path:url(#SVGID_4_);fill:url(#SVGID_141_);}
	.st139{clip-path:url(#SVGID_4_);fill:url(#SVGID_142_);}
	.st140{clip-path:url(#SVGID_4_);fill:url(#SVGID_143_);}
	.st141{clip-path:url(#SVGID_4_);fill:url(#SVGID_144_);}
	.st142{clip-path:url(#SVGID_4_);fill:url(#SVGID_145_);}
	.st143{clip-path:url(#SVGID_4_);fill:url(#SVGID_146_);}
	.st144{clip-path:url(#SVGID_4_);fill:url(#SVGID_147_);}
	.st145{clip-path:url(#SVGID_4_);fill:url(#SVGID_148_);}
	.st146{clip-path:url(#SVGID_4_);fill:url(#SVGID_149_);}
	.st147{clip-path:url(#SVGID_4_);fill:url(#SVGID_150_);}
	.st148{clip-path:url(#SVGID_4_);fill:url(#SVGID_151_);}
	.st149{clip-path:url(#SVGID_4_);fill:url(#SVGID_152_);}
	.st150{clip-path:url(#SVGID_4_);fill:url(#SVGID_153_);}
	.st151{clip-path:url(#SVGID_4_);fill:url(#SVGID_154_);}
	.st152{clip-path:url(#SVGID_4_);fill:url(#SVGID_155_);}
	.st153{clip-path:url(#SVGID_4_);fill:url(#SVGID_156_);}
	.st154{clip-path:url(#SVGID_4_);fill:url(#SVGID_157_);}
	.st155{clip-path:url(#SVGID_4_);fill:url(#SVGID_158_);}
	.st156{clip-path:url(#SVGID_4_);fill:url(#SVGID_159_);}
	.st157{clip-path:url(#SVGID_4_);fill:url(#SVGID_160_);}
	.st158{clip-path:url(#SVGID_4_);fill:url(#SVGID_161_);}
	.st159{clip-path:url(#SVGID_4_);fill:url(#SVGID_162_);}
	.st160{clip-path:url(#SVGID_4_);fill:url(#SVGID_163_);}
	.st161{clip-path:url(#SVGID_4_);fill:url(#SVGID_164_);}
	.st162{clip-path:url(#SVGID_4_);fill:url(#SVGID_165_);}
	.st163{clip-path:url(#SVGID_4_);fill:url(#SVGID_166_);}
	.st164{clip-path:url(#SVGID_4_);fill:url(#SVGID_167_);}
	.st165{clip-path:url(#SVGID_4_);fill:url(#SVGID_168_);}
	.st166{clip-path:url(#SVGID_4_);fill:url(#SVGID_169_);}
	.st167{clip-path:url(#SVGID_4_);fill:url(#SVGID_170_);}
	.st168{clip-path:url(#SVGID_4_);fill:url(#SVGID_171_);}
	.st169{clip-path:url(#SVGID_4_);fill:url(#SVGID_172_);}
	.st170{clip-path:url(#SVGID_4_);fill:url(#SVGID_173_);}
	.st171{clip-path:url(#SVGID_4_);fill:url(#SVGID_174_);}
	.st172{clip-path:url(#SVGID_4_);fill:url(#SVGID_175_);}
	.st173{clip-path:url(#SVGID_4_);fill:url(#SVGID_176_);}
	.st174{clip-path:url(#SVGID_4_);fill:url(#SVGID_177_);}
	.st175{clip-path:url(#SVGID_4_);fill:url(#SVGID_178_);}
	.st176{clip-path:url(#SVGID_4_);fill:url(#SVGID_179_);}
	.st177{clip-path:url(#SVGID_4_);fill:url(#SVGID_180_);}
	.st178{clip-path:url(#SVGID_4_);fill:url(#SVGID_181_);}
	.st179{clip-path:url(#SVGID_4_);fill:url(#SVGID_182_);}
	.st180{clip-path:url(#SVGID_4_);fill:url(#SVGID_183_);}
	.st181{clip-path:url(#SVGID_4_);fill:url(#SVGID_184_);}
	.st182{clip-path:url(#SVGID_4_);fill:url(#SVGID_185_);}
	.st183{clip-path:url(#SVGID_4_);fill:url(#SVGID_186_);}
	.st184{clip-path:url(#SVGID_4_);fill:url(#SVGID_187_);}
	.st185{clip-path:url(#SVGID_4_);fill:url(#SVGID_188_);}
	.st186{clip-path:url(#SVGID_4_);fill:url(#SVGID_189_);}
	.st187{clip-path:url(#SVGID_4_);fill:url(#SVGID_190_);}
	.st188{clip-path:url(#SVGID_4_);fill:url(#SVGID_191_);}
	.st189{clip-path:url(#SVGID_4_);fill:url(#SVGID_192_);}
	.st190{clip-path:url(#SVGID_4_);fill:url(#SVGID_193_);}
	.st191{clip-path:url(#SVGID_4_);fill:url(#SVGID_194_);}
	.st192{clip-path:url(#SVGID_4_);fill:url(#SVGID_195_);}
	.st193{clip-path:url(#SVGID_4_);fill:url(#SVGID_196_);}
	.st194{clip-path:url(#SVGID_4_);fill:url(#SVGID_197_);}
	.st195{clip-path:url(#SVGID_4_);fill:url(#SVGID_198_);}
	.st196{clip-path:url(#SVGID_4_);fill:url(#SVGID_199_);}
	.st197{clip-path:url(#SVGID_4_);fill:url(#SVGID_200_);}
	.st198{clip-path:url(#SVGID_4_);fill:url(#SVGID_201_);}
	.st199{clip-path:url(#SVGID_4_);fill:url(#SVGID_202_);}
	.st200{clip-path:url(#SVGID_4_);fill:url(#SVGID_203_);}
	.st201{clip-path:url(#SVGID_4_);fill:url(#SVGID_204_);}
	.st202{clip-path:url(#SVGID_4_);fill:url(#SVGID_205_);}
	.st203{clip-path:url(#SVGID_4_);fill:url(#SVGID_206_);}
	.st204{clip-path:url(#SVGID_4_);fill:url(#SVGID_207_);}
	.st205{clip-path:url(#SVGID_4_);fill:url(#SVGID_208_);}
	.st206{clip-path:url(#SVGID_4_);fill:url(#SVGID_209_);}
	.st207{clip-path:url(#SVGID_4_);fill:url(#SVGID_210_);}
	.st208{clip-path:url(#SVGID_4_);fill:url(#SVGID_211_);}
	.st209{clip-path:url(#SVGID_4_);fill:url(#SVGID_212_);}
	.st210{clip-path:url(#SVGID_4_);fill:url(#SVGID_213_);}
	.st211{clip-path:url(#SVGID_4_);fill:url(#SVGID_214_);}
	.st212{clip-path:url(#SVGID_4_);fill:url(#SVGID_215_);}
	.st213{clip-path:url(#SVGID_4_);fill:url(#SVGID_216_);}
	.st214{clip-path:url(#SVGID_4_);fill:url(#SVGID_217_);}
	.st215{clip-path:url(#SVGID_4_);fill:url(#SVGID_218_);}
	.st216{clip-path:url(#SVGID_4_);fill:url(#SVGID_219_);}
	.st217{clip-path:url(#SVGID_4_);fill:url(#SVGID_220_);}
	.st218{clip-path:url(#SVGID_4_);fill:url(#SVGID_221_);}
	.st219{clip-path:url(#SVGID_4_);fill:url(#SVGID_222_);}
	.st220{clip-path:url(#SVGID_4_);fill:url(#SVGID_223_);}
	.st221{clip-path:url(#SVGID_4_);fill:url(#SVGID_224_);}
	.st222{clip-path:url(#SVGID_4_);fill:url(#SVGID_225_);}
	.st223{clip-path:url(#SVGID_4_);fill:url(#SVGID_226_);}
	.st224{clip-path:url(#SVGID_4_);fill:url(#SVGID_227_);}
	.st225{clip-path:url(#SVGID_4_);fill:url(#SVGID_228_);}
	.st226{clip-path:url(#SVGID_4_);fill:url(#SVGID_229_);}
	.st227{clip-path:url(#SVGID_4_);fill:url(#SVGID_230_);}
	.st228{clip-path:url(#SVGID_4_);fill:url(#SVGID_231_);}
	.st229{clip-path:url(#SVGID_4_);fill:url(#SVGID_232_);}
	.st230{clip-path:url(#SVGID_4_);fill:url(#SVGID_233_);}
	.st231{clip-path:url(#SVGID_4_);fill:url(#SVGID_234_);}
	.st232{clip-path:url(#SVGID_4_);fill:url(#SVGID_235_);}
	.st233{clip-path:url(#SVGID_4_);fill:url(#SVGID_236_);}
	.st234{clip-path:url(#SVGID_4_);fill:url(#SVGID_237_);}
	.st235{clip-path:url(#SVGID_4_);fill:url(#SVGID_238_);}
	.st236{clip-path:url(#SVGID_4_);fill:url(#SVGID_239_);}
	.st237{clip-path:url(#SVGID_4_);fill:url(#SVGID_240_);}
	.st238{clip-path:url(#SVGID_4_);fill:url(#SVGID_241_);}
	.st239{clip-path:url(#SVGID_4_);fill:url(#SVGID_242_);}
	.st240{clip-path:url(#SVGID_4_);fill:url(#SVGID_243_);}
	.st241{clip-path:url(#SVGID_4_);fill:url(#SVGID_244_);}
	.st242{clip-path:url(#SVGID_4_);fill:url(#SVGID_245_);}
	.st243{clip-path:url(#SVGID_4_);fill:url(#SVGID_246_);}
	.st244{clip-path:url(#SVGID_4_);fill:url(#SVGID_247_);}
	.st245{clip-path:url(#SVGID_4_);fill:url(#SVGID_248_);}
	.st246{clip-path:url(#SVGID_4_);fill:url(#SVGID_249_);}
	.st247{clip-path:url(#SVGID_4_);fill:url(#SVGID_250_);}
	.st248{clip-path:url(#SVGID_4_);fill:url(#SVGID_251_);}
	.st249{clip-path:url(#SVGID_4_);fill:url(#SVGID_252_);}
	.st250{clip-path:url(#SVGID_4_);fill:url(#SVGID_253_);}
	.st251{clip-path:url(#SVGID_4_);fill:url(#SVGID_254_);}
	.st252{clip-path:url(#SVGID_4_);fill:url(#SVGID_255_);}
	.st253{clip-path:url(#SVGID_4_);fill:url(#SVGID_256_);}
	.st254{clip-path:url(#SVGID_4_);fill:url(#SVGID_257_);}
	.st255{clip-path:url(#SVGID_4_);fill:url(#SVGID_258_);}
	.st256{clip-path:url(#SVGID_4_);fill:url(#SVGID_259_);}
	.st257{clip-path:url(#SVGID_4_);fill:url(#SVGID_260_);}
	.st258{clip-path:url(#SVGID_4_);fill:url(#SVGID_261_);}
	.st259{clip-path:url(#SVGID_4_);fill:url(#SVGID_262_);}
	.st260{clip-path:url(#SVGID_4_);fill:url(#SVGID_263_);}
	.st261{clip-path:url(#SVGID_4_);fill:url(#SVGID_264_);}
	.st262{clip-path:url(#SVGID_4_);fill:url(#SVGID_265_);}
	.st263{clip-path:url(#SVGID_4_);fill:url(#SVGID_266_);}
	.st264{clip-path:url(#SVGID_4_);fill:url(#SVGID_267_);}
	.st265{clip-path:url(#SVGID_4_);fill:url(#SVGID_268_);}
	.st266{clip-path:url(#SVGID_4_);fill:url(#SVGID_269_);}
	.st267{clip-path:url(#SVGID_4_);fill:url(#SVGID_270_);}
	.st268{clip-path:url(#SVGID_4_);fill:url(#SVGID_271_);}
	.st269{clip-path:url(#SVGID_4_);fill:url(#SVGID_272_);}
	.st270{clip-path:url(#SVGID_4_);fill:url(#SVGID_273_);}
	.st271{clip-path:url(#SVGID_4_);fill:url(#SVGID_274_);}
	.st272{clip-path:url(#SVGID_4_);fill:url(#SVGID_275_);}
	.st273{clip-path:url(#SVGID_4_);fill:url(#SVGID_276_);}
	.st274{clip-path:url(#SVGID_4_);fill:url(#SVGID_277_);}
	.st275{clip-path:url(#SVGID_4_);fill:url(#SVGID_278_);}
	.st276{clip-path:url(#SVGID_4_);fill:url(#SVGID_279_);}
	.st277{clip-path:url(#SVGID_4_);fill:url(#SVGID_280_);}
	.st278{clip-path:url(#SVGID_4_);fill:url(#SVGID_281_);}
	.st279{clip-path:url(#SVGID_4_);fill:url(#SVGID_282_);}
	.st280{clip-path:url(#SVGID_4_);fill:url(#SVGID_283_);}
	.st281{clip-path:url(#SVGID_4_);fill:url(#SVGID_284_);}
	.st282{clip-path:url(#SVGID_4_);fill:url(#SVGID_285_);}
	.st283{clip-path:url(#SVGID_4_);fill:url(#SVGID_286_);}
	.st284{clip-path:url(#SVGID_4_);fill:url(#SVGID_287_);}
	.st285{clip-path:url(#SVGID_4_);fill:url(#SVGID_288_);}
	.st286{clip-path:url(#SVGID_4_);fill:url(#SVGID_289_);}
	.st287{clip-path:url(#SVGID_4_);fill:url(#SVGID_290_);}
	.st288{clip-path:url(#SVGID_4_);fill:url(#SVGID_291_);}
	.st289{clip-path:url(#SVGID_4_);fill:url(#SVGID_292_);}
	.st290{clip-path:url(#SVGID_4_);fill:url(#SVGID_293_);}
	.st291{clip-path:url(#SVGID_4_);fill:url(#SVGID_294_);}
	.st292{clip-path:url(#SVGID_4_);fill:url(#SVGID_295_);}
	.st293{clip-path:url(#SVGID_4_);fill:url(#SVGID_296_);}
	.st294{clip-path:url(#SVGID_4_);fill:url(#SVGID_297_);}
	.st295{clip-path:url(#SVGID_4_);fill:url(#SVGID_298_);}
	.st296{clip-path:url(#SVGID_4_);fill:url(#SVGID_299_);}
	.st297{clip-path:url(#SVGID_4_);fill:url(#SVGID_300_);}
	.st298{clip-path:url(#SVGID_4_);fill:url(#SVGID_301_);}
	.st299{clip-path:url(#SVGID_4_);fill:url(#SVGID_302_);}
	.st300{clip-path:url(#SVGID_4_);fill:url(#SVGID_303_);}
	.st301{clip-path:url(#SVGID_4_);fill:url(#SVGID_304_);}
	.st302{clip-path:url(#SVGID_4_);fill:url(#SVGID_305_);}
	.st303{clip-path:url(#SVGID_4_);fill:url(#SVGID_306_);}
	.st304{clip-path:url(#SVGID_4_);fill:url(#SVGID_307_);}
	.st305{clip-path:url(#SVGID_4_);fill:url(#SVGID_308_);}
	.st306{clip-path:url(#SVGID_4_);fill:url(#SVGID_309_);}
	.st307{clip-path:url(#SVGID_4_);fill:url(#SVGID_310_);}
	.st308{clip-path:url(#SVGID_4_);fill:url(#SVGID_311_);}
	.st309{clip-path:url(#SVGID_4_);fill:url(#SVGID_312_);}
	.st310{clip-path:url(#SVGID_4_);fill:url(#SVGID_313_);}
	.st311{clip-path:url(#SVGID_4_);fill:url(#SVGID_314_);}
	.st312{clip-path:url(#SVGID_4_);fill:url(#SVGID_315_);}
	.st313{clip-path:url(#SVGID_4_);fill:url(#SVGID_316_);}
	.st314{clip-path:url(#SVGID_4_);fill:url(#SVGID_317_);}
	.st315{clip-path:url(#SVGID_4_);fill:url(#SVGID_318_);}
	.st316{clip-path:url(#SVGID_4_);fill:url(#SVGID_319_);}
	.st317{clip-path:url(#SVGID_4_);fill:url(#SVGID_320_);}
	.st318{clip-path:url(#SVGID_4_);fill:url(#SVGID_321_);}
	.st319{clip-path:url(#SVGID_4_);fill:url(#SVGID_322_);}
	.st320{clip-path:url(#SVGID_4_);fill:url(#SVGID_323_);}
	.st321{clip-path:url(#SVGID_4_);fill:url(#SVGID_324_);}
	.st322{clip-path:url(#SVGID_4_);fill:url(#SVGID_325_);}
	.st323{clip-path:url(#SVGID_4_);fill:url(#SVGID_326_);}
	.st324{clip-path:url(#SVGID_4_);fill:url(#SVGID_327_);}
	.st325{clip-path:url(#SVGID_4_);fill:url(#SVGID_328_);}
	.st326{clip-path:url(#SVGID_4_);fill:url(#SVGID_329_);}
	.st327{clip-path:url(#SVGID_4_);fill:url(#SVGID_330_);}
	.st328{clip-path:url(#SVGID_4_);fill:url(#SVGID_331_);}
	.st329{clip-path:url(#SVGID_4_);fill:url(#SVGID_332_);}
	.st330{clip-path:url(#SVGID_4_);fill:url(#SVGID_333_);}
	.st331{clip-path:url(#SVGID_4_);fill:url(#SVGID_334_);}
	.st332{clip-path:url(#SVGID_4_);fill:url(#SVGID_335_);}
	.st333{clip-path:url(#SVGID_4_);fill:url(#SVGID_336_);}
	.st334{clip-path:url(#SVGID_4_);fill:url(#SVGID_337_);}
	.st335{clip-path:url(#SVGID_4_);fill:url(#SVGID_338_);}
	.st336{clip-path:url(#SVGID_4_);fill:url(#SVGID_339_);}
	.st337{clip-path:url(#SVGID_4_);fill:url(#SVGID_340_);}
	.st338{clip-path:url(#SVGID_4_);fill:url(#SVGID_341_);}
	.st339{clip-path:url(#SVGID_4_);fill:url(#SVGID_342_);}
	.st340{clip-path:url(#SVGID_4_);fill:url(#SVGID_343_);}
	.st341{clip-path:url(#SVGID_4_);fill:url(#SVGID_344_);}
	.st342{clip-path:url(#SVGID_4_);fill:url(#SVGID_345_);}
	.st343{clip-path:url(#SVGID_4_);fill:url(#SVGID_346_);}
	.st344{clip-path:url(#SVGID_4_);fill:url(#SVGID_347_);}
	.st345{clip-path:url(#SVGID_4_);fill:url(#SVGID_348_);}
	.st346{clip-path:url(#SVGID_4_);fill:url(#SVGID_349_);}
	.st347{clip-path:url(#SVGID_4_);fill:url(#SVGID_350_);}
	.st348{clip-path:url(#SVGID_4_);fill:url(#SVGID_351_);}
	.st349{clip-path:url(#SVGID_4_);fill:url(#SVGID_352_);}
	.st350{clip-path:url(#SVGID_4_);fill:url(#SVGID_353_);}
	.st351{clip-path:url(#SVGID_4_);fill:url(#SVGID_354_);}
	.st352{clip-path:url(#SVGID_4_);fill:url(#SVGID_355_);}
	.st353{clip-path:url(#SVGID_4_);fill:url(#SVGID_356_);}
	.st354{clip-path:url(#SVGID_4_);fill:url(#SVGID_357_);}
	.st355{clip-path:url(#SVGID_4_);fill:url(#SVGID_358_);}
	.st356{clip-path:url(#SVGID_4_);fill:url(#SVGID_359_);}
	.st357{clip-path:url(#SVGID_4_);fill:url(#SVGID_360_);}
	.st358{clip-path:url(#SVGID_4_);fill:url(#SVGID_361_);}
	.st359{clip-path:url(#SVGID_4_);fill:url(#SVGID_362_);}
	.st360{clip-path:url(#SVGID_4_);fill:url(#SVGID_363_);}
	.st361{clip-path:url(#SVGID_4_);fill:url(#SVGID_364_);}
	.st362{clip-path:url(#SVGID_4_);fill:url(#SVGID_365_);}
	.st363{clip-path:url(#SVGID_4_);fill:url(#SVGID_366_);}
	.st364{clip-path:url(#SVGID_4_);fill:url(#SVGID_367_);}
	.st365{clip-path:url(#SVGID_4_);fill:url(#SVGID_368_);}
	.st366{clip-path:url(#SVGID_4_);fill:url(#SVGID_369_);}
	.st367{clip-path:url(#SVGID_4_);fill:url(#SVGID_370_);}
	.st368{clip-path:url(#SVGID_4_);fill:url(#SVGID_371_);}
	.st369{clip-path:url(#SVGID_4_);fill:url(#SVGID_372_);}
	.st370{clip-path:url(#SVGID_4_);fill:url(#SVGID_373_);}
	.st371{clip-path:url(#SVGID_4_);fill:url(#SVGID_374_);}
	.st372{clip-path:url(#SVGID_4_);fill:url(#SVGID_375_);}
	.st373{clip-path:url(#SVGID_4_);fill:url(#SVGID_376_);}
	.st374{clip-path:url(#SVGID_4_);fill:url(#SVGID_377_);}
	.st375{clip-path:url(#SVGID_4_);fill:url(#SVGID_378_);}
	.st376{clip-path:url(#SVGID_4_);fill:url(#SVGID_379_);}
	.st377{clip-path:url(#SVGID_4_);fill:url(#SVGID_380_);}
	.st378{clip-path:url(#SVGID_4_);fill:url(#SVGID_381_);}
	.st379{clip-path:url(#SVGID_4_);fill:url(#SVGID_382_);}
	.st380{clip-path:url(#SVGID_4_);fill:url(#SVGID_383_);}
	.st381{clip-path:url(#SVGID_4_);fill:url(#SVGID_384_);}
	.st382{clip-path:url(#SVGID_4_);fill:url(#SVGID_385_);}
	.st383{clip-path:url(#SVGID_4_);fill:url(#SVGID_386_);}
	.st384{clip-path:url(#SVGID_4_);fill:url(#SVGID_387_);}
	.st385{clip-path:url(#SVGID_4_);fill:url(#SVGID_388_);}
	.st386{clip-path:url(#SVGID_4_);fill:url(#SVGID_389_);}
	.st387{clip-path:url(#SVGID_4_);fill:url(#SVGID_390_);}
	.st388{clip-path:url(#SVGID_4_);fill:url(#SVGID_391_);}
	.st389{clip-path:url(#SVGID_4_);fill:url(#SVGID_392_);}
	.st390{clip-path:url(#SVGID_4_);fill:url(#SVGID_393_);}
	.st391{clip-path:url(#SVGID_4_);fill:url(#SVGID_394_);}
	.st392{clip-path:url(#SVGID_4_);fill:url(#SVGID_395_);}
	.st393{clip-path:url(#SVGID_4_);fill:url(#SVGID_396_);}
	.st394{clip-path:url(#SVGID_4_);fill:url(#SVGID_397_);}
	.st395{clip-path:url(#SVGID_4_);fill:url(#SVGID_398_);}
	.st396{clip-path:url(#SVGID_4_);fill:url(#SVGID_399_);}
	.st397{clip-path:url(#SVGID_4_);fill:url(#SVGID_400_);}
	.st398{clip-path:url(#SVGID_4_);fill:url(#SVGID_401_);}
	.st399{clip-path:url(#SVGID_4_);fill:url(#SVGID_402_);}
	.st400{clip-path:url(#SVGID_4_);fill:url(#SVGID_403_);}
	.st401{clip-path:url(#SVGID_4_);fill:url(#SVGID_404_);}
	.st402{clip-path:url(#SVGID_4_);fill:url(#SVGID_405_);}
	.st403{clip-path:url(#SVGID_4_);fill:url(#SVGID_406_);}
	.st404{clip-path:url(#SVGID_4_);fill:url(#SVGID_407_);}
	.st405{clip-path:url(#SVGID_4_);fill:url(#SVGID_408_);}
	.st406{clip-path:url(#SVGID_4_);fill:url(#SVGID_409_);}
	.st407{clip-path:url(#SVGID_4_);fill:url(#SVGID_410_);}
	.st408{clip-path:url(#SVGID_4_);fill:url(#SVGID_411_);}
	.st409{clip-path:url(#SVGID_4_);fill:url(#SVGID_412_);}
	.st410{clip-path:url(#SVGID_4_);fill:url(#SVGID_413_);}
	.st411{clip-path:url(#SVGID_4_);fill:url(#SVGID_414_);}
	.st412{clip-path:url(#SVGID_4_);fill:url(#SVGID_415_);}
	.st413{clip-path:url(#SVGID_4_);fill:url(#SVGID_416_);}
	.st414{clip-path:url(#SVGID_4_);fill:url(#SVGID_417_);}
	.st415{clip-path:url(#SVGID_4_);fill:url(#SVGID_418_);}
	.st416{clip-path:url(#SVGID_4_);fill:url(#SVGID_419_);}
	.st417{clip-path:url(#SVGID_4_);fill:url(#SVGID_420_);}
	.st418{clip-path:url(#SVGID_4_);fill:url(#SVGID_421_);}
	.st419{fill:#F4F4F4;stroke:#FFFFFF;stroke-miterlimit:10;}
	.st420{fill:#FFFFFF;}
	.st421{fill:#FFA47C;}
	.st422{fill:#330E01;}
	.st423{fill:#6F2200;}
	.st424{fill:#303030;}
	.st425{fill:#97380E;}
	.st426{fill:#191919;}
	.st427{fill:#E8A900;}
	.st428{fill:#D19C86;}
	.st429{fill:#607099;}
	.st430{fill:#DEDEDE;}
	.st431{fill:#FFBD95;}
	.st432{fill:#8D3B26;}
	.st433{fill:#383838;}
	.st434{fill:#4B5D87;}
	.st435{fill:#C2C2C2;}
	.st436{fill:#D3C033;}
	.st437{fill:#DDAA99;}
	.st438{fill:#F4D3C6;}
	.st439{fill:#F7F0ED;}
	.st440{fill:#763045;}
	.st441{fill:#5E2035;}
	.st442{fill:#995E1F;}
	.st443{fill:#660707;}
	.st444{fill:#960F0F;}
	.st445{fill:#D17171;}
	.st446{fill:#A99F76;}
	.st447{fill:#897F54;}
	.st448{fill:#1E0A04;}
	.st449{fill:#351305;}
	.st450{fill:#753620;}
	.st451{fill:#9E556A;}
	.st452{fill:#843E55;stroke:#FFFFFF;stroke-miterlimit:10;}
	.st453{fill:#F4F4F4;}
	.st454{fill:#1D5B3B;}
	.st455{fill:#00000D;}
	.st456{fill:#E56500;}
	.st457{fill:#FFA465;}
	.st458{fill:#FF9800;}
	.st459{fill:#FF9000;}
	.st460{opacity:0.2;}
	.st461{fill:url(#SVGID_422_);}
	.st462{fill:url(#SVGID_423_);}
	.st463{enable-background:new    ;}
	.st464{clip-path:url(#SVGID_425_);enable-background:new    ;}
	.st465{fill:#6A6A6A;}
	.st466{fill:#6D6D6D;}
	.st467{fill:#707070;}
	.st468{fill:#737373;}
	.st469{fill:#767676;}
	.st470{fill:#7A7A7A;}
	.st471{fill:#7D7D7D;}
	.st472{fill:#808080;}
	.st473{fill:#838383;}
	.st474{fill:#666666;}
	.st475{fill:#636363;}
	.st476{fill:#606060;}
	.st477{fill:#5D5D5D;}
	.st478{fill:#5A5A5A;}
	.st479{fill:#565656;}
	.st480{fill:#535353;}
	.st481{clip-path:url(#SVGID_425_);}
	.st482{fill:url(#SVGID_426_);}
	.st483{fill:url(#SVGID_427_);}
	.st484{fill:url(#SVGID_428_);}
	.st485{fill:url(#SVGID_429_);}
	.st486{fill:url(#SVGID_430_);}
	.st487{fill:url(#SVGID_431_);}
	.st488{fill:url(#SVGID_432_);}
	.st489{fill:url(#SVGID_433_);}
	.st490{fill:url(#SVGID_434_);}
	.st491{fill:url(#SVGID_435_);}
	.st492{fill:url(#SVGID_436_);}
	.st493{fill:url(#SVGID_437_);}
	.st494{fill:url(#SVGID_438_);}
	.st495{fill:url(#SVGID_439_);}
	.st496{fill:url(#SVGID_440_);}
	.st497{fill:url(#SVGID_441_);}
	.st498{fill:url(#SVGID_442_);}
	.st499{fill:url(#SVGID_443_);}
	.st500{fill:url(#SVGID_444_);}
	.st501{fill:url(#SVGID_445_);}
	.st502{fill:#777777;}
	.st503{clip-path:url(#SVGID_447_);enable-background:new    ;}
	.st504{clip-path:url(#SVGID_447_);}
	.st505{fill:#7E7E7E;}
	.st506{clip-path:url(#SVGID_449_);}
	.st507{fill:#EAEAEA;}
	.st508{fill:url(#SVGID_450_);}
	.st509{fill:url(#SVGID_451_);}
	.st510{fill:url(#SVGID_452_);}
	.st511{fill:url(#SVGID_453_);}
	.st512{clip-path:url(#SVGID_455_);enable-background:new    ;}
	.st513{clip-path:url(#SVGID_455_);}
	.st514{fill:url(#SVGID_456_);}
	.st515{fill:url(#SVGID_457_);}
	.st516{fill:url(#SVGID_458_);}
	.st517{fill:url(#SVGID_459_);}
	.st518{fill:url(#SVGID_460_);}
	.st519{fill:url(#SVGID_461_);}
	.st520{fill:url(#SVGID_462_);}
	.st521{fill:url(#SVGID_463_);}
	.st522{fill:url(#SVGID_464_);}
	.st523{fill:url(#SVGID_465_);}
	.st524{fill:url(#SVGID_466_);}
	.st525{fill:url(#SVGID_467_);}
	.st526{fill:url(#SVGID_468_);}
	.st527{fill:url(#SVGID_469_);}
	.st528{fill:url(#SVGID_470_);}
	.st529{fill:url(#SVGID_471_);}
	.st530{fill:url(#SVGID_472_);}
	.st531{fill:url(#SVGID_473_);}
	.st532{fill:url(#SVGID_474_);}
	.st533{fill:url(#SVGID_475_);}
	.st534{clip-path:url(#SVGID_477_);enable-background:new    ;}
	.st535{clip-path:url(#SVGID_477_);}
	.st536{clip-path:url(#SVGID_479_);}
	.st537{fill:url(#SVGID_480_);}
	.st538{fill:url(#SVGID_481_);}
	.st539{fill:url(#SVGID_482_);}
	.st540{fill:url(#SVGID_483_);}
	.st541{fill:none;stroke:#B3B3B3;stroke-miterlimit:10;}
	.st542{fill:#B3B3B3;}
	.st543{fill:none;stroke:#4D4D4D;stroke-miterlimit:10;}
	.st544{fill:#9B725D;}
	.st545{fill:#A87E67;}
	.st546{fill:#AF8772;}
	.st547{fill:#843E55;}
	.st548{opacity:0.2;fill:#FF9000;}
	.st549{fill:#999999;}
</style>
<g id="Fondo">
	<g>
		<path class="st544" d="M140,21.5c0,0,2-1.2,3.3-1.8c3.3-1.4,7.3-2.5,7.3-2.5l-0.7-9.7c0,0-3,3.7-8.8,3.8
			C139.7,14.3,138.7,18.2,140,21.5z"/>
		<path d="M66.7,52.3c0,0,1-9.4-8.4-11.9c-9.2-2.5-22.6,9.8-40.1,7.2C11.7,46.6,5,34.4,5,34.4s-1.8,4.1-0.8,8.3c1,4.2,2.6,6,2.6,6
			C7,49.3,3.9,48,2.3,46.3c-1-1-2.1-3.8-2.1-3.8s-1.9,7.1,5.2,12.9c0.4,0.4-4.7,1.6-4.7,1.6s2.7,4.4,7.9,7.4
			c4.7,2.7,10.7,4.1,10.7,4.1l-8,3.8c0,0,8.4,1.1,10.9,0.9c1.7-0.1,6.1-2,6.1-2L25,75.8c0,0,4.9,1.5,16.3-5.2
			C52.5,64,66.7,52.3,66.7,52.3z"/>
		<path d="M171.2,29.1c0.8,0.5,0.4,11.3-8.4,13.5c-8.8,2.2-18.1,0.8-21.7,4.3c-3.7,3.5-5.9,6.6-10.6,6.2c-3.1-0.3-5.3-1.7-5.3-1.7
			s5.4,0.6,7-0.5c2-1.4,3.3-3.8,5.3-6.7c0.9-1.3,3.3-2.4,3.3-2.4s-3.6-0.6-5.8,0.6c-2.2,1.2-4.6,2.1-6.3,1.8
			c-1.9-0.3-3.5-2.9-3.5-2.9s2.6,1.4,4.3,0.3c1.7-1,5.2-4.2,9.2-4c4,0.2,1.8-2.9-1.7-3.4c-1.5-0.2-3.9,2-3.9,2s0.9-4.4,5.6-3.7
			c12.9,1.8,14.5-2.1,14.5-2.1L171.2,29.1z"/>
		<path d="M188.9,25.8c0.6,0.7-2,11.1-11.1,11.4c-9,0.3-17.8-3-22.2-0.4c-4.3,2.6-7.1,5.2-11.6,3.8c-3-0.9-4.8-2.8-4.8-2.8
			s5.2,1.8,7,1c2.2-0.9,4-3,6.6-5.4c1.2-1.1,3.7-1.7,3.7-1.7s-3.4-1.4-5.8-0.7c-2.4,0.7-5,1-6.5,0.4c-1.7-0.7-2.8-3.5-2.8-3.5
			s2.2,1.9,4.1,1.2c1.9-0.6,6-3,9.9-2c3.9,1,2.4-2.5-0.9-3.6c-1.4-0.5-4.3,1.1-4.3,1.1s1.8-4.1,6.3-2.4c12.2,4.5,14.6,1,14.6,1
			L188.9,25.8z"/>
		<path d="M207.1,27c0.5,0.8-4.5,10.3-13.4,8.5c-8.8-1.8-16.6-7.1-21.5-5.5c-4.8,1.5-8.1,3.4-12.2,1c-2.7-1.6-4.1-3.8-4.1-3.8
			s4.6,2.9,6.6,2.6c2.4-0.4,4.6-2,7.7-3.8c1.4-0.8,4-0.7,4-0.7s-2.9-2.1-5.5-2c-2.5,0.1-5.1-0.2-6.5-1.1c-1.5-1.1-1.9-4.1-1.9-4.1
			s1.7,2.3,3.7,2.2c2-0.2,6.6-1.5,10.1,0.4c3.5,1.9,2.9-1.8,0-3.8c-1.3-0.8-4.4,0.1-4.4,0.1s2.7-3.5,6.6-0.9
			c10.9,7.3,10.3,5.1,13.9,4.4C201.9,18.2,207.1,27,207.1,27z"/>
		<path class="st448" d="M79,52.6c9.2-3.2,20.2,4.3,24.4,9.8c4.2,5.5,3.4,16.3,1.9,20.1c-4.5,10.9-10.9,21.4-10.6,22.2
			c0.5,1.4,18.4,22.9,19.3,25.8c0.4,1.3,1.7,4.7,1.9,5.4c0.2,0.6-7.3,1.8-7.3,1.8s-2.5-4.5-2.7-6.1c-1-7-21.3-20.7-22.4-22.3
			c-1.1-1.7,1.5-10.4,0.3-13.5c-1.2-3.1-14.1-10.6-17.5-16C63.1,74.3,61.3,58.9,79,52.6z"/>
		<path class="st424" d="M108,136.7c0,0-0.2,3.2,0.3,3.6c0.5,0.4,9.9,4.1,11.2,3.5c1.3-0.6-1.6-4.4-2-5.8c-0.4-1.4-2-3.5-2-3.5
			L108,136.7z"/>
		<path class="st448" d="M160.1,56.8c3.3,0.4,7.9,2.1,11.5,10.1c3.6,8-1.1,13-1.6,16.3c-0.5,3.4,15.2,18.1,16.2,21.3
			c1,3.2,0.9,6.6-0.4,8.1c-1.3,1.5-4.3,3.3-6.1,7.7c-1.8,4.5-3,7.1-4.6,7.5c-1.6,0.4-4.9,1.9-5.8,2.6c-1,0.7-2.3,1.9-2.3,1.9
			s-1.7-8.1-0.8-7.7c1,0.4,2.3,1.3,2.9-0.4s3.1-3.2,3.9-4.1c0.7-0.9,6.8-8,6.2-11.1S166.6,97.5,162,93.5c-4.6-4-12.1-7.9-13.6-11.8
			c-1.9-4.7-3.3-11.1-2-15.1C147.8,62.5,152.7,55.9,160.1,56.8z"/>
		<path class="st449" d="M54.9,56.8c2.5-7.1,11.4-13.9,26.3-12.5c14.9,1.4,17.8,3.7,39.5,4.1c12.1,0.2,17.1-3.5,24.4-8.2
			c8.1-5.2,22.4-11.3,31.8-13.8c8.9-2.4,20.6-3,26.1,0.7c5.6,3.7-5.2,20.8-15,22.9c-4.8,1.1-17.4,12.1-17,14.1
			c0.4,2,3.7,7.8,1.3,14.1s-18,19.8-36.1,19c-18.2-0.8-38-12-45.4-12.9c-7.4-0.9-26.4,4.2-32.4-1.9C52.5,76.2,52.3,64.4,54.9,56.8z"
			/>
		<path class="st426" d="M166.2,124.6c0,0-2.8-1.7-3.7-1c-0.9,0.8-3.4,8.6-3.1,9.8c0.2,1.3,2.7,0.1,4-0.1c1.3-0.2,3.6-1,3.6-1
			L166.2,124.6z"/>
		<path class="st449" d="M190.6,26.3c-1.6,3.6-2,15.8,0.8,19.7c2.8,3.9,9.9,5.2,13.1,6.5c3.2,1.2,5.9,1.8,7.1,3.2
			c1.1,1.4,1.2,2.4,1.9,2.9c0.7,0.5,6.5,0.2,7.4-0.4c1-0.6,1.4-2.7,2.1-3.6c0.8-0.9,1.4-2.9,0.9-3.7c-0.5-0.8-1.9-3.7-3.6-4.7
			c-1.7-1-6.7-6.8-8.5-8.8c-1.7-2-4.5-8.5-8.3-10.3C199.7,25.1,192.6,21.7,190.6,26.3z"/>
		<path class="st449" d="M195.7,27.8c-1.2,0.6-3.1-2.2-2.8-4.2c0.2-2,1.5-5.6,2.8-6.6c1.3-1,0.8,1.5,1.7,2.9
			C198.2,21.3,199.7,25.8,195.7,27.8z"/>
		<path class="st426" d="M209.3,54.6c-4.3,0-14.4-0.1-22.2-0.7c-18-1.5-19-10.9-19-11.3l1.2-0.1c0,0.1,1,8.8,18,10.2
			c10.1,0.8,24.1,0.7,24.2,0.7l0,1.2C211.4,54.6,210.6,54.6,209.3,54.6z"/>
		<path class="st426" d="M212.2,49.8c0,0,0-2,1.9-4.3c1.6-2,3-2.4,3-2.4l1.8,1.8c0,0-1.6,0.7-2.8,2.2c-1.1,1.5-1.6,3.9-1.6,3.9
			L212.2,49.8z"/>
		<path class="st426" d="M211.6,50.6c-0.1-0.1-15.1-12.5-15.1-12.5l-0.9,1l15.1,12.2L211.6,50.6z"/>
		<path class="st426" d="M199.5,50.8c-0.1-0.1-1.6-3.1-2.5-7.8c-0.7-4.1,0.1-6.8,1.1-9.3c0.9-2.5,4.4-7.2,4.4-7.2l-1.8-0.7
			c0,0-5.2,6.4-5.7,12.6c-0.5,6.2,2.1,11.6,2.1,11.6L199.5,50.8z"/>
		<path class="st426" d="M195,38.3c-0.2,0-2.8-2.4-4.5-5.5c-2-3.7-1.8-7.7-1.8-7.7l1.2-0.3c0,0,0,4.7,1.9,8c1.6,2.9,3.5,4.2,3.5,4.2
			L195,38.3z"/>
		<path class="st427" d="M212.7,54.8c-0.9,0-1.7-0.4-2.2-1.2c-0.4-0.6-0.5-1.3-0.4-2c0.1-0.7,0.5-1.3,1.1-1.7
			c1.2-0.8,2.9-0.4,3.7,0.7c0.4,0.6,0.5,1.3,0.4,2c-0.1,0.7-0.5,1.3-1.1,1.7C213.8,54.6,213.3,54.8,212.7,54.8z M212.7,50.5
			c-0.3,0-0.6,0.1-0.9,0.3c-0.4,0.2-0.6,0.6-0.7,1c-0.1,0.4,0,0.9,0.2,1.2c0.5,0.7,1.6,0.9,2.3,0.4c0.4-0.2,0.6-0.6,0.7-1
			c0.1-0.4,0-0.9-0.2-1.2C213.8,50.8,213.3,50.5,212.7,50.5z"/>
		<path class="st449" d="M159.4,64.7c3.1,1.1,7.2,3.8,8.9,12.4c1.7,8.6-2.5,13.6-5.2,15.5c-2.7,1.9-7.6,0.3-8.3,1
			c-0.7,0.7,8.2,15.6,8.5,18.9c0.2,3.3-0.6,6.6-2.2,7.8c-1.6,1.2-4.9,2.2-7.7,6.2c-2.8,3.9-4.5,6.3-6.2,6.3c-1.6,0-5.2,0.8-6.3,1.2
			c-1.1,0.4-2.7,1.4-2.7,1.4s0.1-8.3,1-7.7c0.9,0.6,2,1.8,2.9,0.3c0.9-1.5,3.7-2.4,4.7-3.1c0.9-0.7,8.4-6.3,8.5-9.5
			c0.1-3.2-9.7-14.1-13.2-19.1c-3.6-4.9-5.3-7.1-3-10.7c2.3-3.6,2.5-10.9,4.7-14.5C146.1,67.5,152.3,62.2,159.4,64.7z"/>
		<path class="st424" d="M139.3,127.7c0,0-2.4-2.3-3.4-1.8c-1,0.6-5.2,7.6-5.3,8.9c-0.1,1.3,2.6,0.7,3.9,0.8
			c1.3,0.1,3.8-0.2,3.8-0.2L139.3,127.7z"/>
		<path class="st449" d="M76.5,52.1C86.6,52.4,94.4,64,96.3,70.9c1.9,6.9-2.9,17.1-5.9,20.2c-8.5,8.9-18,15.4-18.1,16.4
			c0,1.6,18.2,9.4,19.1,10.4c0.9,1,3.2,10.5,3.1,11.2c0,0.7-7.4-3.2-7.4-3.2s-0.1-2.1-1.5-3c-1.4-0.9-26-12.2-26.4-14.2
			c-0.4-2,7.7-8.3,7.7-11.8C67,93.3,55.1,80,54,73.5C52.8,66.9,57,51.4,76.5,52.1z"/>
		<path class="st424" d="M87.2,125.8c0,0-2.3,2.4-2.2,3c0.1,0.7,4.4,8.2,5.9,8.6c1.5,0.4,2.4-2.9,3-4.3c0.6-1.3,0.7-4.2,0.7-4.2
			L87.2,125.8z"/>
		<path class="st450" d="M99.6,70.5c2.4,1.6,8.4,3.4,20.9,4.2c4.4,0.3,14.1,0.9,24.2-1.1c4.9-1-3.2-31.1-3.8-31
			c-0.7,0.1-4.7,4.2-17.3,5c-16.4,1-25.7-0.9-25.7-0.9S97.2,68.9,99.6,70.5z"/>
		<path d="M127.1,47.1c0,0,3.1,12,3.7,23.8c0.8,15.4-0.7,26-0.7,26l7.6,0.8c0,0,1.5-11.8,0.1-28.2c-1-12.6-4.1-23.4-4.1-23.4
			L127.1,47.1z"/>
		<path class="st451" d="M140.4,9.2c-1.8-0.7-10,0.5-6.6,0.1c0.2,0-5.1,0.6-6.1,0.7c-0.9,0.1-11.7,0.3-17.4,5
			c-0.9,0.8-3.4,1.7-2.8,3.7c2.3,4.9,7,8.5,12.1,10.8c1.6,1.1,3.2-0.9,4.9-1.2c3.5-0.7,9.5,0.1,13.9-0.5c4.4-0.6,7.2-3.3,8-6.4
			C147,18.3,145.6,11.1,140.4,9.2z"/>
		<path class="st430" d="M107.4,18.6c-4.1,3.7-7.4,7-5.7,12.3c1.4,4.3,10.6,4,14,2.4c1.7-0.8,2.7-2.4,3.7-3.9
			C114.4,27.1,109.8,23.5,107.4,18.6z"/>
		<path class="st451" d="M138.2,14.5c2.6-1.1,5.1,1.4,7.1,5.1c2,3.7,6.9,12.4,7.3,14.7c0.4,2.3-1.9,5.6-4.5,3.6
			c-2.7-1.9-9.6-10.3-11.2-13.4C135.2,21.5,132.5,16.9,138.2,14.5z"/>
		<g>
			<path class="st430" d="M173.2,49.8L173.2,49.8c0.2-0.3,0.2-0.7-0.1-0.9l-2.2-1.6c-0.3-0.2-0.7-0.2-0.9,0.1l0,0
				c-0.2,0.3-0.1,0.7,0.1,0.9l2.2,1.6C172.6,50.1,173,50.1,173.2,49.8z"/>
			<path class="st430" d="M174,48.9L174,48.9c0.2-0.3,0.2-0.7-0.1-0.9l-2.2-1.6c-0.3-0.2-0.7-0.2-0.9,0.1l0,0
				c-0.2,0.3-0.1,0.7,0.1,0.9l2.2,1.6C173.4,49.3,173.8,49.2,174,48.9z"/>
			<path class="st430" d="M174.7,48L174.7,48c0.2-0.3,0.2-0.7-0.1-0.9l-2.2-1.6c-0.3-0.2-0.7-0.2-0.9,0.1l0,0
				c-0.2,0.3-0.1,0.7,0.1,0.9l2.2,1.6C174.1,48.3,174.5,48.3,174.7,48z"/>
			<path class="st430" d="M175.3,47L175.3,47c0.2-0.3,0.2-0.7-0.1-0.9l-2.2-1.6c-0.3-0.2-0.7-0.2-0.9,0.1l0,0
				c-0.2,0.3-0.1,0.7,0.1,0.9l2.2,1.6C174.7,47.4,175.1,47.3,175.3,47z"/>
			<path class="st430" d="M167.3,41.8c0,0,4.2,1.2,5,1.6c0.8,0.4,3.1,3,3.1,3s-1.5,0.3-1.9,1c-0.4,0.7-1.2,2.6-1.2,2.6
				s-2.8-1.1-3.8-2c-1.1-0.9-2.9-2.2-2.9-2.2L167.3,41.8z"/>
		</g>
		<g>
			<path class="st545" d="M156.6,4.8c-1.5-2-6.6-4.5-9.9-1.4c-3.3,3.1-2.7,6.8-1.7,9.2c0.8,1.9,1.7,3,3.7,4.3
				c0.4,0.3,4.2,1.7,5.1,1.5c0.6-0.1,1.7-3.9,1.8-3.9c0.2,0,0.6-0.1,0.7-0.4c0.1-0.5,0.1-3.4,0.3-3.7
				C156.8,10.1,158.4,7.1,156.6,4.8z"/>
			<path class="st432" d="M157.4,6.7c0,0-2.7-2.2-7.1,0.5c-0.9,0.6,0,4-0.2,4.2c-0.3,0.3-2.6-2.8-2.5-2.4c0.4,3.8-1.1,5.6-1.4,5.6
				c-1-0.1-3.2-5.8-0.9-9.6c2.3-3.9,6.8-3.5,7.8-3.1C154.1,2.3,157.2,3.1,157.4,6.7z"/>
			<path class="st546" d="M149.2,10.2c0.1,1.2,0,2.8-0.6,2.9c-0.7,0.1-1.3-0.8-1.5-2.1c-0.1-1.2,0.3-2.3,0.9-2.3
				C148.7,8.6,149.1,8.9,149.2,10.2z"/>
		</g>
		<path class="st433" d="M145.9,10c0.1,0,0.6,2.9,1.4,4.3c0.8,1.5,2.4,2.9,4.4,3.7c0.3,0.1,0.9,0.2,0.9,0.2s-0.6-0.6-0.7-0.6
			c-2.3-1.2-3.5-2.8-3.5-3c0-0.2,1.3-2.2,2-3.8c0.3-0.6,0.6-2.2,0.6-2.2h-0.8c0,0-0.1,1.1-0.4,1.7c-0.8,1.9-2,3.3-2,3.3
			s-0.4-0.9-0.7-1.7c-0.3-1-0.5-2.5-0.5-2.5L145.9,10z"/>
		<g>
			<path d="M130.4,70.6c0,0,0.2,1.8-0.3,3c-0.5,1.2-1.1,3.8-1.1,4.8c0,1,1.7,2.3,1.7,2.3l3,0.1c0,0-0.8-5-1.1-6.6
				c-0.4-1.5,0.4-3.3,0.4-3.3L130.4,70.6z"/>
			<path class="st426" d="M126.3,49.6c0,0-1.4,4.6-1.9,9.7c-0.5,5.1-0.1,7.9,1.4,8.3c1.4,0.4,3.7,0.6,4.5,1.8
				c0.8,1.2,1.5,2.7,2.6,2.6c1,0,1.4-8.6,1.3-14.2c-0.1-5.6-1.3-7.5-1.3-7.5L126.3,49.6z"/>
			<path class="st424" d="M127.4,38.8c0.9-0.5,3.4-0.3,3.9,0.3c0.8,1,1.1,5.1,0.9,6c-0.2,0.8-0.1,4.2-2.7,4.5
				c-2.6,0.3-3-1.8-3.1-3.2C126.3,44.9,125.7,39.9,127.4,38.8z"/>
			<path class="st426" d="M132.2,43c0,0,0.2,5.4-2.8,5.5c-2.2,0.1-2.5-2-3.1-1.9c-0.6,0-2,0.8-2.7,0.6c-0.7-0.2-3.1-1.4-4-1.2
				c-0.9,0.2-8.8,2.1-8.6,3.4c0.2,1.3,5.1,7,10.6,6.5c5.4-0.5,6.8-3.9,7.9-4c1.2-0.1,4.5,2.2,5.7,0C135.8,50.9,136.7,43.1,132.2,43z
				"/>
			<path class="st424" d="M126.4,40.9c0,0-8.2,5-12.3,4.5c-7.5-1-8.7-3.5-10.8-2c-1.1,0.7,0.8,5.5,4.7,6c3.9,0.5,20.8-0.9,20.8-0.9
				s-1.7-0.8-2.2-3.6C126.3,42.5,126.4,40.9,126.4,40.9z"/>
		</g>
		<path class="st547" d="M159.8,8.2c0.1-0.5-1.5-1.1-1.4-1.5c0-1.9-0.7-5.6-5.7-6.5c-7.1-1.3-10.7,5.3-9.3,9.5
			c0.3,0.9,0.8,1.9,0.9,2.1c0.4,0.4,0.9-0.9,3-1.6c1.6-0.6,3.3-1.1,4.8-1.1C155.1,8.9,159.7,8.8,159.8,8.2z"/>
		<path class="st430" d="M102.9,26.4c1.2-2,4.4-2.4,7-2c2.6,0.4,9.1,5,12,7.3c2.9,2.3,10.6,10.2,10.8,12.7c0.3,2.5-1.9,5.8-6.1,3.8
			c-4.2-2-13.5-7.1-17.2-9.8C105.7,35.8,99.2,32.6,102.9,26.4z"/>
		<path class="st430" d="M130.9,43.4c-2.5-0.6-9,4.6-10.3,11.6c-1.3,7-0.5,14.6-0.8,15.8c-0.3,1.2-1.6,3.8-0.7,4.6s6.1-0.3,6.1-1.3
			c0-1-0.4-0.7-0.1-3.2c0.3-2.5,3.9-14.5,4.9-17.2C131,51,135,44.3,130.9,43.4z"/>
		<path class="st435" d="M121.3,74.8c-0.9-0.9,0.4-3.4,0.7-4.6c0.3-1.2-0.5-8.8,0.8-15.8c0.6-3,2.1-5.7,3.9-7.7
			c-4.7-2.4-11.8-6.4-15-8.7c-2.6-1.9-6.4-4-7.4-7.1c-0.1-0.2-0.2-0.4-0.3-0.6c-1.5-4.5,0.8-7.6,4-10.8c-0.2-0.3-0.4-0.6-0.6-0.9
			c-4.1,3.7-7.4,7-5.7,12.3c0.1,0.2,0.2,0.4,0.3,0.6c1,3.1,4.8,5.2,7.4,7.1c3.2,2.3,10.4,6.4,15,8.7c-1.8,2-3.3,4.7-3.9,7.7
			c-1.3,7-0.5,14.6-0.8,15.8c-0.3,1.2-1.6,3.8-0.7,4.6c0.7,0.6,3.5,0.2,5-0.4C123,75.2,121.8,75.2,121.3,74.8z"/>
		<path d="M121.6,50.8c0,0-1.8,4-2.2,7.9c-0.4,3.9,0.4,10.8,0,11.6c-0.4,0.8-1.4,4.2-1.3,5c0.1,0.8,0.8,2.2,0.9,2.5
			c0,0.3,0.1,1.5,0.1,1.5l5.1,0.6l0.4-1.1c0,0,4.4,1.4,7.5,1.3c3.1-0.1,5.5-0.5,5.7-1.1c0.3-0.6-0.1-1.7-2.7-1.9
			c-2.6-0.3-7.7-3.6-8.9-4.5c-1.2-0.9,3.7-17.8,3.7-17.8s-0.4-3.4-2.3-4.3C125.3,49.4,121.6,50.8,121.6,50.8z"/>
		<path class="st424" d="M130.6,71.4l3.2,0.4c0.4,0,0.7-0.3,0.7-0.7l0,0c0-0.4-0.2-0.8-0.6-0.8l-3.2-0.4c-0.4,0-0.7,0.3-0.7,0.7l0,0
			C130,71,130.2,71.4,130.6,71.4z"/>
		<path class="st424" d="M134,71l-2.8-0.1c0,0-0.1,1.9,0.1,2.7c0.1,0.8,0.4,4.6,0.1,5.7c-0.4,1.1-0.4,1.4-0.4,1.4l3.4,0
			c0,0,0.4-1.5,0.3-3c-0.1-1.5-0.8-3.6-0.9-4.5C133.8,72.3,134,71,134,71z"/>
		<path class="st430" d="M142.2,20.4c0.8,1.4,0.5,3-0.5,3.6c-1.1,0.6-2.6-0.1-3.3-1.5c-0.8-1.4-0.5-3,0.5-3.6
			C139.9,18.3,141.4,19,142.2,20.4z"/>
		<path class="st435" d="M127.4,37.1L127.4,37.1c-2.1-2.2-4.3-4.3-5.5-5.3c-0.7-0.6-1.6-1.3-2.6-2c0.1-0.1,0.2-0.3,0.3-0.4
			c-1.2-0.5-2.4-1.2-3.5-1.9c-0.2-0.1-0.4-0.2-0.5-0.3c-1.3-0.8-2.5-1.8-3.7-2.9c-0.4,0.7-0.5,1.5,0.5,2.5
			c2.5,2.4,15.5,10.7,15.6,10.8C127.8,37.5,127.6,37.3,127.4,37.1z"/>
		<path class="st451" d="M167.9,41.9c0,0-3.7-3.3-7.9-5.7c-4.3-2.5-9.2-3.8-11.2-2.5c-2,1.3-1.9,3.8,0.5,5.5
			c2.4,1.7,15.8,6.8,16.3,6.9C166,46.1,167.9,41.9,167.9,41.9z"/>
	</g>
</g>
<g id="Layer_1">
</g>
</svg>
